<svg xmlns="http://www.w3.org/2000/svg" id="Layer_1" version="1.1" viewBox="0 68 412 412">
  
  <defs>
    <style>
      .st0 {
        fill: #fff;
      }

      .st1 {
        fill: #e6252d;
      }

      .st2 {
        fill: #e02129;
      }

      .st3 {
        fill: #1c181a;
      }

      .st4 {
        fill: #201c1d;
      }
    </style>
  </defs>
  <g id="Layer_1-2">
    <path class="st3" d="M62,447.6l65.8-68.2c2.2-.9,22.7,12,28.2,14.1,139.4,53.3,243.2-129.9,129.1-221.5-100.8-80.9-244,19.5-203.1,143.6,3.9,12,10.8,21.7,15.4,33.2l-47.1,47C-32,294.9,7.4,142.3,126.3,91.3c115-49.3,248.1,20.7,271.7,143.2,29.4,152.7-116.5,274.9-262.7,223.6-15.9-5.6-17-10.6-34.9-10.6h-38.4Z" />
    <path class="st2" d="M190.1,181.8c128.8-15,141.2,170.8,26,182.6-126.4,12.9-137.9-169.5-26-182.6h0ZM209,236c-7.4,5.6-10.8-5.4-13-7.7-9.6-10.3-19.4-.8-14,1.7s9.5-.3,10.1,5.6-9,9.9-7.9,16.4c13.2-5.9,25.9-6.4,39.1,0,3.2-7.1-7.9-12.1-7.8-14.8.1-9.4,11.6-6.2,12.6-7.2,4.3-4.3-8.9-11.7-17.1-.6-1.3,1.8-1.4,6.3-1.9,6.6h-.1ZM201.4,250.3c-10.1-1.5-19.3,10-25,11.8s-23.2,1.5-14.9,16.3c3.9.8,5.1-13.1,13.3-9.4,1.9,13.1-2.8,8.7-9,12.2-10,5.7-8.1,20.2-1.3,12.8,2.7-3,1.5-9.6,10.3-7.7,1.3,15.9-.8,8.4-7.9,11.7-11.5,5.3-9,20.2-1.7,14.8s0-10.8,8.6-9.3c1,.2,5.8,10.8,12.4,14.5,13.7,7.9,35,5.5,44.8-7.6s1.6-6.5,1.8-6.7c4-3.1,11.3,4.6,11,9.2l5.5-1.5c2.2-3.1-1.6-8.2-3.9-10.3-7.6-6.8-13.5.9-11-14.8,9-2.6,8.4,8.7,9.4,9.4,6,4.2,8.4-7.8,1.5-13.2-7.4-5.8-13.2,3.6-10.9-13.4,7.4-1.3,8.3,3.2,9.4,9.4,8.3,1.4,6.9-7.2,3.1-11.8-4.5-5.5-10.5-2.6-15.7-4.7-1.3-.5-25.1-18.8-25.1-9.4v52.5c-1.5.6-4.7-1.4-4.7-2.3v-52.5h0Z" />
  </g>
  <ellipse class="st2" cx="206.6" cy="270" rx="74.6" ry="66.5" />
  <g>
    <path class="st0" d="M200.6,250v55.5c0,0,.4,1,.5,1.1,1.1,1.8,3.7,1.8,4.9,0,.1-.2.5-1.1.5-1.3v-55.4c6.1.4,12.2,2.3,17.2,5.8,3.1,2.2,5.6,5.1,7.7,8.3,3.8.1,7.6-.5,11.3.8,5.2,1.8,9.6,7.5,9.6,13.1,0,4.2-5.8,5.3-7.3,1.5-.7-1.8-.3-3.2-1.7-5-.8-1-3-2.7-4.3-2.7h-4.5c1.1,4.1.8,8.4.8,12.6.1.1,1.7-.1,2-.1,7.3,0,13.9,6,14.4,13.5.3,5.3-6.3,6-7.5,1.8-.6-2.1-.3-3.5-2-5.3-.8-.9-2.9-2.2-4.2-2.2h-3c.2,1,.2,2.2.1,3.2,0,2.1-.4,4.3-.9,6.4-.2.9-.5,1.8-.7,2.6,5.5-.7,10.5.7,14.1,5,1.7,2,3.4,5.6,3.6,8.3.5,5.4-6.6,6.7-7.8,1.2-.5-2.3-.7-3.8-2.7-5.4-3.1-2.5-7-1.2-10.7-1.4-1.9,3.2-4.5,6.1-7.5,8.4-14.4,10.8-36.9,7.2-46.2-8.4-.4-.2-2.4,0-2.9,0-3.2,0-6-.6-8.4,2.1-1.6,1.8-1.5,3.2-2.1,5.3-1.2,4.5-7.9,3.6-7.7-1.4.3-5.5,4.9-11.3,10.1-13,1.7-.5,5.7-1,7.4-.6.1,0,.1.1.1-.1,0-1.1-.7-2.8-.9-4.1-.4-2.7-.6-5.4-.4-8.1-2.8-.1-5.3.2-7.2,2.5-1.4,1.7-1.3,2.9-1.8,4.9-1.1,4.4-7.9,3.8-7.6-1.5.2-4.1,2.9-8.7,6.3-11,3-2.1,6.5-2.7,10.1-2.6v-5.8c.2-2.2.3-4.5.9-6.6h-4.5c-1.8,0-4.2,2.2-4.9,3.7-1.1,2.3-.4,6-4.1,6.3-3.4.3-4.5-2.3-4.1-5.2.9-6.1,5.1-11,11.3-12.2,3.1-.6,6.2,0,9.3-.4,2.2-3.1,4.8-6,7.9-8.3,4.9-3.5,10.9-5.1,16.8-5.8h0Z" />
    <path class="st0" d="M197.3,235.1c4.1-.7,8.3-.9,12.4,0,1.1-7.6,7-14.6,15.2-14,3.3.2,5.7,3.1,3.6,6.1-1.5,2-4.1,1-6.2,1.7s-3.7,2.5-4.5,4.4c-.3.7-1.2,3.8-.9,4.3,0,.1,1.3,1,1.6,1.2,3.4,3.1,6.2,7.4,6.6,12,0,.6-.1,1.2.1,1.8-.1.1-2.6-1.5-2.9-1.8-10.5-6-27.5-5.7-37.9.4-.2.1-2.3,1.6-2.4,1.5-.2-5.5,2.8-10.5,6.8-14,.3-.3,1.3-.9,1.5-1.1.1-.1.1-.2.1-.3,0-.5-.3-1.8-.5-2.3-.9-3.3-3-6-6.6-6.3-.7,0-1.5,0-2.2,0-4.2-.4-4.5-6.5-.2-7.4,2.3-.5,5.2,0,7.3,1,5.2,2.2,8.5,7.4,9.1,12.9h0Z" />
  </g>
  </svg>
